<svg width="40" height="40" viewBox="0 0 40 40" fill="none" xmlns="http://www.w3.org/2000/svg">
<g filter="url(#filter0_d_1_534)">
<path d="M17.4246 20.3848C17.4246 20.4898 17.4246 20.4898 17.3429 20.4898H15.2779C15.6629 19.3232 16.0712 18.0865 16.4446 16.8732C16.4446 16.9665 16.4446 17.0598 16.5262 17.1532C16.6079 17.2465 16.6312 17.5382 16.6779 17.7248L16.8879 18.3782C16.8879 18.5998 17.0162 18.8098 17.0862 19.0315L17.3079 19.6965L17.4246 20.3848Z" fill="#ED5F00"/>
<path d="M25.8712 19.6498C25.8064 19.4524 25.69 19.2758 25.5342 19.1384C25.3783 19.001 25.1885 18.9077 24.9845 18.8682C24.772 18.8333 24.5553 18.8333 24.3428 18.8682C24.1856 18.8988 24.0371 18.9638 23.908 19.0586C23.7789 19.1534 23.6724 19.2757 23.5962 19.4165C23.478 19.626 23.3989 19.8553 23.3628 20.0932H25.7778C25.8945 20.0932 25.9295 20.0932 25.9178 19.9298C25.9137 19.835 25.8981 19.7409 25.8712 19.6498ZM25.8712 19.6498C25.8064 19.4524 25.69 19.2758 25.5342 19.1384C25.3783 19.001 25.1885 18.9077 24.9845 18.8682C24.772 18.8333 24.5553 18.8333 24.3428 18.8682C24.1856 18.8988 24.0371 18.9638 23.908 19.0586C23.7789 19.1534 23.6724 19.2757 23.5962 19.4165C23.478 19.626 23.3989 19.8553 23.3628 20.0932H25.7778C25.8945 20.0932 25.9295 20.0932 25.9178 19.9298C25.9137 19.835 25.8981 19.7409 25.8712 19.6498ZM25.8712 19.6498C25.8064 19.4524 25.69 19.2758 25.5342 19.1384C25.3783 19.001 25.1885 18.9077 24.9845 18.8682C24.772 18.8333 24.5553 18.8333 24.3428 18.8682C24.1856 18.8988 24.0371 18.9638 23.908 19.0586C23.7789 19.1534 23.6724 19.2757 23.5962 19.4165C23.478 19.626 23.3989 19.8553 23.3628 20.0932H25.7778C25.8945 20.0932 25.9295 20.0932 25.9178 19.9298C25.9137 19.835 25.8981 19.7409 25.8712 19.6498ZM25.8712 19.6498C25.8064 19.4524 25.69 19.2758 25.5342 19.1384C25.3783 19.001 25.1885 18.9077 24.9845 18.8682C24.772 18.8333 24.5553 18.8333 24.3428 18.8682C24.1856 18.8988 24.0371 18.9638 23.908 19.0586C23.7789 19.1534 23.6724 19.2757 23.5962 19.4165C23.478 19.626 23.3989 19.8553 23.3628 20.0932H25.7778C25.8945 20.0932 25.9295 20.0932 25.9178 19.9298C25.9137 19.835 25.8981 19.7409 25.8712 19.6498ZM25.7778 8.2515H14.1112C12.5641 8.2515 11.0803 8.86608 9.98636 9.96004C8.8924 11.054 8.27782 12.5377 8.27782 14.0848V25.7515C8.27782 27.2986 8.8924 28.7823 9.98636 29.8763C11.0803 30.9703 12.5641 31.5848 14.1112 31.5848H25.7778C27.3249 31.5848 28.8087 30.9703 29.9026 29.8763C30.9966 28.7823 31.6112 27.2986 31.6112 25.7515V14.0848C31.6112 12.5377 30.9966 11.054 29.9026 9.96004C28.8087 8.86608 27.3249 8.2515 25.7778 8.2515ZM20.7962 24.5848H18.9062C18.8738 24.5898 18.8407 24.5848 18.8111 24.5707C18.7816 24.5565 18.757 24.5338 18.7405 24.5055C18.7295 24.4869 18.7224 24.4663 18.7195 24.4448C18.6262 24.1532 18.5212 23.8732 18.4278 23.5815C18.3345 23.2898 18.1945 22.9165 18.0895 22.5782C18.0895 22.3915 17.9378 22.3682 17.7745 22.3682H14.8345C14.7062 22.3682 14.7062 22.3682 14.6595 22.5082C14.6128 22.6482 14.5428 22.8932 14.4728 23.0915L14.2862 23.6982L14.0412 24.4098C14.0474 24.4406 14.0474 24.4724 14.0412 24.5032C14.0412 24.6548 13.8545 24.6315 13.7378 24.6315H12.2328C12.0578 24.6315 11.9995 24.5498 12.0695 24.3865C12.1395 24.2232 12.1978 24.0365 12.2562 23.8732L12.5012 23.1265L12.9562 21.8432C13.0845 21.4932 13.2012 21.1315 13.3178 20.7698C13.4345 20.4082 13.5395 20.1515 13.6562 19.8365L13.9012 19.1015L14.3328 17.9348L14.6828 16.9082C14.7995 16.5815 14.9162 16.2548 15.0212 15.9165C15.0375 15.7575 15.0375 15.5972 15.0212 15.4382C15.0212 15.1932 15.0212 15.1932 15.2662 15.1932H17.3778C17.5645 15.1932 17.5528 15.1932 17.6112 15.3682C17.6695 15.5432 17.8212 15.9398 17.9145 16.2198C18.0078 16.4998 18.0895 16.7098 18.1712 16.9432L18.4512 17.7015L18.7312 18.5182C18.8478 18.8332 18.9645 19.1365 19.0695 19.4515L19.3728 20.2915C19.4662 20.5715 19.5712 20.8515 19.6762 21.1432C19.7812 21.4348 19.8162 21.5748 19.8978 21.7848C19.9795 21.9948 20.0612 22.2515 20.1545 22.4848C20.2478 22.7182 20.3062 22.9282 20.3878 23.1498L20.7262 24.0948L20.8662 24.5032C20.9128 24.4915 20.8778 24.5848 20.7962 24.5848ZM27.7962 21.0848C27.8016 21.1898 27.8016 21.2948 27.7962 21.3998C27.7962 21.5048 27.6212 21.5398 27.5162 21.5398H23.3978C23.4398 21.9225 23.6078 22.2795 23.8762 22.5548C24.3623 22.8534 24.9141 23.0287 25.4834 23.0653C26.0528 23.1019 26.6225 22.9987 27.1428 22.7648C27.2362 22.7648 27.2828 22.7648 27.2828 22.8582V24.1765C27.2828 24.3865 27.2012 24.4098 27.0262 24.4798L26.6062 24.6082C26.4728 24.6475 26.3361 24.6748 26.1978 24.6898C25.9062 24.6898 25.6145 24.7715 25.3228 24.7832C25.0312 24.7948 24.9262 24.7832 24.7278 24.7832H24.6112C24.3778 24.7832 24.1328 24.7832 23.9112 24.7015C23.2676 24.573 22.6803 24.2467 22.2312 23.7682C21.9463 23.4736 21.724 23.1243 21.5778 22.7415C21.4598 22.4621 21.3813 22.1676 21.3445 21.8665C21.3278 21.5245 21.3278 21.1819 21.3445 20.8398C21.362 20.4187 21.4413 20.0022 21.5778 19.6032C21.6926 19.2711 21.8536 18.9569 22.0562 18.6698C22.322 18.2693 22.6827 17.9407 23.1062 17.7132C23.2889 17.6074 23.4795 17.5179 23.6778 17.4448C23.8932 17.3936 24.1113 17.3546 24.3312 17.3282C24.5295 17.3165 24.7278 17.3165 24.9262 17.3282C25.2186 17.3328 25.5064 17.3717 25.7895 17.4448C26.0462 17.5172 26.2912 17.6183 26.5245 17.7482C26.8838 17.9542 27.1818 18.2522 27.3878 18.6115C27.5045 18.8215 27.5978 19.0315 27.6912 19.2415C27.7409 19.3901 27.7798 19.5417 27.8078 19.6965C27.9121 20.1523 27.924 20.6244 27.8428 21.0848H27.7962ZM24.9378 18.9265C24.7254 18.8917 24.5086 18.8917 24.2962 18.9265C24.1389 18.9571 23.9905 19.0222 23.8614 19.117C23.7323 19.2118 23.6258 19.334 23.5495 19.4748C23.4313 19.6844 23.3523 19.9137 23.3162 20.1515H25.7778C25.8945 20.1515 25.9295 20.1515 25.9178 19.9882C25.9082 19.8844 25.8846 19.7824 25.8478 19.6848C25.7903 19.4838 25.6798 19.302 25.5279 19.1583C25.3761 19.0147 25.1884 18.9145 24.9845 18.8682L24.9378 18.9265ZM25.8245 19.7082C25.7597 19.5107 25.6434 19.3342 25.4875 19.1967C25.3316 19.0593 25.1418 18.966 24.9378 18.9265C24.7254 18.8917 24.5086 18.8917 24.2962 18.9265C24.1389 18.9571 23.9905 19.0222 23.8614 19.117C23.7323 19.2118 23.6258 19.334 23.5495 19.4748C23.4313 19.6844 23.3523 19.9137 23.3162 20.1515H25.7778C25.8945 20.1515 25.9295 20.1515 25.9178 19.9882C25.9178 19.8731 25.9023 19.7603 25.8712 19.6498L25.8245 19.7082ZM25.8245 19.7082C25.7597 19.5107 25.6434 19.3342 25.4875 19.1967C25.3316 19.0593 25.1418 18.966 24.9378 18.9265C24.7254 18.8917 24.5086 18.8917 24.2962 18.9265C24.1389 18.9571 23.9905 19.0222 23.8614 19.117C23.7323 19.2118 23.6258 19.334 23.5495 19.4748C23.4313 19.6844 23.3523 19.9137 23.3162 20.1515H25.7778C25.8945 20.1515 25.9295 20.1515 25.9178 19.9882C25.9178 19.8731 25.9023 19.7603 25.8712 19.6498L25.8245 19.7082ZM25.8245 19.7082C25.7597 19.5107 25.6434 19.3342 25.4875 19.1967C25.3316 19.0593 25.1418 18.966 24.9378 18.9265C24.7254 18.8917 24.5086 18.8917 24.2962 18.9265C24.1389 18.9571 23.9905 19.0222 23.8614 19.117C23.7323 19.2118 23.6258 19.334 23.5495 19.4748C23.4313 19.6844 23.3523 19.9137 23.3162 20.1515H25.7778C25.8945 20.1515 25.9295 20.1515 25.9178 19.9882C25.9178 19.8731 25.9023 19.7603 25.8712 19.6498L25.8245 19.7082ZM25.8245 19.7082C25.7597 19.5107 25.6434 19.3342 25.4875 19.1967C25.3316 19.0593 25.1418 18.966 24.9378 18.9265C24.7254 18.8917 24.5086 18.8917 24.2962 18.9265C24.1389 18.9571 23.9905 19.0222 23.8614 19.117C23.7323 19.2118 23.6258 19.334 23.5495 19.4748C23.4313 19.6844 23.3523 19.9137 23.3162 20.1515H25.7778C25.8945 20.1515 25.9295 20.1515 25.9178 19.9882C25.9178 19.8731 25.9023 19.7603 25.8712 19.6498L25.8245 19.7082Z" fill="#ED5F00"/>
</g>
<defs>
<filter id="filter0_d_1_534" x="0.694477" y="0.668156" width="38.5" height="38.5" filterUnits="userSpaceOnUse" color-interpolation-filters="sRGB">
<feFlood flood-opacity="0" result="BackgroundImageFix"/>
<feColorMatrix in="SourceAlpha" type="matrix" values="0 0 0 0 0 0 0 0 0 0 0 0 0 0 0 0 0 0 127 0" result="hardAlpha"/>
<feOffset/>
<feGaussianBlur stdDeviation="3.79167"/>
<feComposite in2="hardAlpha" operator="out"/>
<feColorMatrix type="matrix" values="0 0 0 0 0.698039 0 0 0 0 0.278431 0 0 0 0 0 0 0 0 1 0"/>
<feBlend mode="normal" in2="BackgroundImageFix" result="effect1_dropShadow_1_534"/>
<feBlend mode="normal" in="SourceGraphic" in2="effect1_dropShadow_1_534" result="shape"/>
</filter>
</defs>
</svg>
