<svg width="18" height="19" viewBox="0 0 18 19" fill="none" xmlns="http://www.w3.org/2000/svg">
<path d="M7.97331 1.53917L3.01081 4.29417C2.62352 4.51006 2.3011 4.82572 2.07703 5.20834C1.85297 5.59096 1.73544 6.0266 1.73664 6.47V11.815C1.73558 12.2583 1.85319 12.6937 2.07724 13.0762C2.3013 13.4586 2.62364 13.7742 3.01081 13.99L7.97498 16.7458C8.34426 16.9513 8.75987 17.0592 9.18248 17.0592C9.60508 17.0592 10.0207 16.9513 10.39 16.7458L15.3541 13.9908C15.7414 13.7749 16.0639 13.4593 16.2879 13.0767C16.512 12.694 16.6295 12.2584 16.6283 11.815V6.47C16.6294 6.02674 16.5118 5.59128 16.2877 5.20881C16.0637 4.82635 15.7413 4.51083 15.3541 4.295L10.39 1.53917C10.0207 1.33368 9.60508 1.22583 9.18248 1.22583C8.75987 1.22583 8.34426 1.33368 7.97498 1.53917H7.97331Z" stroke="#ED5F00" stroke-width="2"/>
<path d="M16.1233 4.97241L9.18164 9.14241M9.18164 9.14241L2.23997 4.97241M9.18164 9.14241V17.0507" stroke="#ED5F00" stroke-width="2"/>
</svg>
