<svg width="18" height="19" viewBox="0 0 18 19" fill="none" xmlns="http://www.w3.org/2000/svg">
<path d="M6.05991 12.4417C4.50775 10.8865 3.31408 9.011 2.56238 6.94637C2.14882 5.81758 2.52773 4.57763 3.37794 3.72743L3.90408 3.20201C4.04554 3.06027 4.21355 2.94782 4.39851 2.8711C4.58348 2.79437 4.78175 2.75488 4.982 2.75488C5.18224 2.75488 5.38052 2.79437 5.56548 2.8711C5.75044 2.94782 5.91846 3.06027 6.05991 3.20201L7.29191 4.43401C7.43365 4.57546 7.5461 4.74347 7.62282 4.92844C7.69954 5.1134 7.73903 5.31168 7.73903 5.51192C7.73903 5.71216 7.69954 5.91044 7.62282 6.0954C7.5461 6.28037 7.43365 6.44838 7.29191 6.58983L6.98878 6.89296C6.86745 7.01427 6.7712 7.15829 6.70553 7.3168C6.63986 7.47531 6.60607 7.64521 6.60607 7.81678C6.60607 7.98836 6.63986 8.15825 6.70553 8.31676C6.7712 8.47527 6.86745 8.6193 6.98878 8.74061L9.76025 11.5128C9.88156 11.6341 10.0256 11.7304 10.1841 11.796C10.3426 11.8617 10.5125 11.8955 10.6841 11.8955C10.8556 11.8955 11.0255 11.8617 11.184 11.796C11.3426 11.7304 11.4866 11.6341 11.6079 11.5128L11.9117 11.2097C12.0532 11.0679 12.2212 10.9555 12.4062 10.8788C12.5911 10.802 12.7894 10.7625 12.9897 10.7625C13.1899 10.7625 13.3882 10.802 13.5731 10.8788C13.7581 10.9555 13.9261 11.0679 14.0676 11.2097L15.2996 12.4417C15.4413 12.5831 15.5538 12.7511 15.6305 12.9361C15.7072 13.1211 15.7467 13.3193 15.7467 13.5196C15.7467 13.7198 15.7072 13.9181 15.6305 14.1031C15.5538 14.288 15.4413 14.456 15.2996 14.5975L14.7741 15.1229C13.9239 15.9738 12.684 16.3528 11.5552 15.9392C9.49057 15.1875 7.61508 13.9938 6.05991 12.4417Z" stroke="white" stroke-width="1.0826" stroke-linejoin="round"/>
</svg>
