<svg width="22" height="22" viewBox="0 0 22 22" fill="none" xmlns="http://www.w3.org/2000/svg">
<path d="M8.05331 18.0176H3.05331C2.72179 18.0176 2.40385 17.8859 2.16943 17.6515C1.93501 17.417 1.80331 17.0991 1.80331 16.7676V3.01758C1.80331 2.68606 1.93501 2.36812 2.16943 2.13369C2.40385 1.89927 2.72179 1.76758 3.05331 1.76758H15.5533C15.8848 1.76758 16.2028 1.89927 16.4372 2.13369C16.6716 2.36812 16.8033 2.68606 16.8033 3.01758V8.64258M8.05331 5.51758H13.0533M5.55331 9.26758H13.0533M5.55331 13.0176H11.8033M20.0375 13.5342L13.6816 19.8926L10.5566 20.5176L11.1816 17.3926L17.5408 11.0342C17.8713 10.7037 18.3196 10.518 18.7871 10.518C19.2545 10.518 19.7028 10.7037 20.0333 11.0342L20.0408 11.0409C20.2044 11.2048 20.334 11.3993 20.4224 11.6134C20.5108 11.8274 20.5561 12.0567 20.5558 12.2883C20.5555 12.5198 20.5095 12.749 20.4206 12.9628C20.3317 13.1766 20.2015 13.3708 20.0375 13.5342Z" stroke="#ED5F00" stroke-width="2" stroke-linecap="round" stroke-linejoin="round"/>
</svg>
