<svg width="40" height="40" viewBox="0 0 40 40" fill="none" xmlns="http://www.w3.org/2000/svg">
<g filter="url(#filter0_d_1_533)">
<path d="M25.6315 8.2515L14.3109 8.25538C12.979 8.25538 11.6315 8.5908 10.6534 9.33455C9.96771 9.83286 9.42737 10.5051 9.08815 11.2819C8.72648 12.0723 8.49995 13.1321 8.49995 14.0372L8.51162 25.8983C8.51357 27.4578 8.97732 28.8704 9.93204 29.8961C10.8887 30.9228 12.3257 31.5324 14.1427 31.5401L24.8877 31.5849C26.1127 31.5897 27.8968 31.5498 29.0712 30.8907C30.1164 30.3025 31.04 29.3779 31.4989 27.9896C31.7691 27.1729 31.8343 25.9635 31.8333 24.93L31.8129 14.1091C31.8109 13.2458 31.6671 12.1423 31.2811 11.2566C30.8679 10.3077 30.1329 9.49205 29.0236 8.899C28.2876 8.50427 27.0908 8.2515 25.6315 8.2515ZM25.6315 9.15566C26.9712 9.15566 28.099 9.44247 28.5871 9.70497C29.5369 10.2134 30.0882 10.8386 30.4236 11.6105C30.7298 12.3115 30.8805 13.3537 30.8834 14.1111L30.9009 24.9319C30.9029 25.9168 30.8066 27.1262 30.6112 27.7125C30.2262 28.8811 29.4971 29.6044 28.6055 30.1061C27.8141 30.5504 26.0661 30.6826 24.8916 30.6778L14.1486 30.635C12.5376 30.6282 11.3952 30.1158 10.6233 29.2875C9.85329 28.4601 9.44496 27.2847 9.44496 25.8993L9.47121 14.0362C9.47121 13.2302 9.66176 12.26 9.93204 11.6669C10.2675 10.9309 10.6612 10.4934 11.2591 10.0394C11.9854 9.48622 13.2327 9.19455 14.4111 9.19455L25.6315 9.15566ZM20.1287 12.4836C18.2076 12.5701 17.0137 14.0955 17.004 15.6822C17.0225 17.0851 18.5936 19.0665 19.8079 20.0864C19.9245 20.1826 19.9576 20.1923 20.1287 20.2614C20.189 20.2857 20.3212 20.2157 20.4466 20.1301C20.7966 19.8919 21.4121 19.2094 22.0489 18.4404C22.4518 17.9402 22.7887 17.3903 23.0512 16.8041C23.4489 15.9389 23.305 15.2496 23.2797 14.9686C23.1003 14.3489 22.7695 13.7836 22.3172 13.3236C21.7167 12.7825 20.937 12.4832 20.1287 12.4836ZM24.1848 20.1855C23.1083 20.2107 22.0431 20.411 21.0309 20.7786C20.8851 20.835 20.7782 20.8758 20.6673 20.9439C20.6119 20.9789 20.5604 21.0751 20.5652 21.2278C20.5818 21.6487 20.8472 22.4703 21.1719 23.4347C21.5452 24.5382 22.2083 25.6417 22.9647 26.0986C23.3306 26.3182 23.7374 26.461 24.1603 26.5182C24.5832 26.5753 25.0133 26.5457 25.4244 26.4311C26.2333 26.1948 26.9751 25.5872 27.3319 24.928C28.2905 23.1605 27.5166 21.4786 26.2421 20.6337C25.8075 20.346 25.1405 20.2011 24.4046 20.1865L24.1848 20.1855ZM15.987 20.2225C15.7426 20.2224 15.4984 20.2376 15.2559 20.2682C14.6765 20.344 14.3498 20.5336 14.0018 20.764C13.3247 21.207 12.8482 21.8977 12.6747 22.688C12.6018 23.2247 12.5911 23.7118 12.7068 24.1532C13.1277 25.5036 13.9959 26.3135 15.4747 26.5371C16.093 26.5643 16.8066 26.4758 17.4094 26.0996C18.6432 25.3393 19.4316 23.0176 19.7544 21.4893C19.8059 21.3182 19.7884 21.1422 19.7418 21.081C19.7369 21.0158 19.699 20.9711 19.557 20.903C19.1701 20.7164 18.2737 20.4976 17.248 20.3197C16.8312 20.2518 16.4094 20.2193 15.987 20.2225Z" fill="#ED5F00"/>
</g>
<defs>
<filter id="filter0_d_1_533" x="0.916614" y="0.668155" width="38.5" height="38.5004" filterUnits="userSpaceOnUse" color-interpolation-filters="sRGB">
<feFlood flood-opacity="0" result="BackgroundImageFix"/>
<feColorMatrix in="SourceAlpha" type="matrix" values="0 0 0 0 0 0 0 0 0 0 0 0 0 0 0 0 0 0 127 0" result="hardAlpha"/>
<feOffset/>
<feGaussianBlur stdDeviation="3.79167"/>
<feComposite in2="hardAlpha" operator="out"/>
<feColorMatrix type="matrix" values="0 0 0 0 0.698039 0 0 0 0 0.278431 0 0 0 0 0 0 0 0 1 0"/>
<feBlend mode="normal" in2="BackgroundImageFix" result="effect1_dropShadow_1_533"/>
<feBlend mode="normal" in="SourceGraphic" in2="effect1_dropShadow_1_533" result="shape"/>
</filter>
</defs>
</svg>
