<svg width="17" height="15" viewBox="0 0 17 15" fill="none" xmlns="http://www.w3.org/2000/svg">
<path d="M8.7624 1.41604L8.76312 13.6855M7.58164 1.84259L1.73125 11.6106C1.61065 11.8194 1.54682 12.0562 1.54613 12.2974C1.54544 12.5386 1.60791 12.7757 1.72731 12.9853C1.84672 13.1948 2.01891 13.3695 2.22675 13.4918C2.43459 13.6142 2.67085 13.68 2.91201 13.6827H14.6142C14.8553 13.6799 15.0914 13.6141 15.2992 13.4918C15.5069 13.3694 15.679 13.1949 15.7984 12.9855C15.9178 12.776 15.9803 12.539 15.9797 12.2979C15.9791 12.0568 15.9154 11.8201 15.795 11.6113L9.9446 1.84187C9.82151 1.6387 9.64812 1.47071 9.44115 1.35412C9.23419 1.23752 9.00066 1.17627 8.76312 1.17627C8.52558 1.17627 8.29205 1.23752 8.08509 1.35412C7.87813 1.47071 7.70473 1.6387 7.58164 1.84187V1.84259Z" stroke="white" stroke-width="1.44347" stroke-linecap="round" stroke-linejoin="round"/>
</svg>
