<svg width="13" height="13" viewBox="0 0 13 13" fill="none" xmlns="http://www.w3.org/2000/svg">
<path d="M3.84408 0.391357H8.73487C10.598 0.391357 12.1118 1.90517 12.1118 3.76833V8.65912C12.1118 9.55475 11.7561 10.4137 11.1227 11.047C10.4894 11.6803 9.63049 12.0361 8.73487 12.0361H3.84408C1.98092 12.0361 0.467102 10.5223 0.467102 8.65912V3.76833C0.467102 2.8727 0.822889 2.01376 1.45619 1.38045C2.0895 0.747145 2.94845 0.391357 3.84408 0.391357ZM3.72763 1.55583C3.17172 1.55583 2.63858 1.77666 2.2455 2.16975C1.85241 2.56284 1.63158 3.09598 1.63158 3.65188V8.77557C1.63158 9.93422 2.56898 10.8716 3.72763 10.8716H8.85131C9.40722 10.8716 9.94036 10.6508 10.3334 10.2577C10.7265 9.86462 10.9474 9.33148 10.9474 8.77557V3.65188C10.9474 2.49323 10.01 1.55583 8.85131 1.55583H3.72763ZM9.34621 2.42919C9.53924 2.42919 9.72436 2.50586 9.86084 2.64235C9.99733 2.77884 10.074 2.96396 10.074 3.15698C10.074 3.35001 9.99733 3.53512 9.86084 3.67161C9.72436 3.8081 9.53924 3.88478 9.34621 3.88478C9.15319 3.88478 8.96807 3.8081 8.83158 3.67161C8.6951 3.53512 8.61842 3.35001 8.61842 3.15698C8.61842 2.96396 8.6951 2.77884 8.83158 2.64235C8.96807 2.50586 9.15319 2.42919 9.34621 2.42919ZM6.28947 3.30254C7.06156 3.30254 7.80204 3.60925 8.34799 4.15521C8.89394 4.70116 9.20065 5.44163 9.20065 6.21373C9.20065 6.98582 8.89394 7.72629 8.34799 8.27224C7.80204 8.8182 7.06156 9.12491 6.28947 9.12491C5.51738 9.12491 4.77691 8.8182 4.23095 8.27224C3.685 7.72629 3.37829 6.98582 3.37829 6.21373C3.37829 5.44163 3.685 4.70116 4.23095 4.15521C4.77691 3.60925 5.51738 3.30254 6.28947 3.30254ZM6.28947 4.46702C5.82621 4.46702 5.38193 4.65104 5.05436 4.97861C4.72679 5.30619 4.54276 5.75047 4.54276 6.21373C4.54276 6.67698 4.72679 7.12126 5.05436 7.44884C5.38193 7.77641 5.82621 7.96044 6.28947 7.96044C6.75273 7.96044 7.19701 7.77641 7.52458 7.44884C7.85215 7.12126 8.03618 6.67698 8.03618 6.21373C8.03618 5.75047 7.85215 5.30619 7.52458 4.97861C7.19701 4.65104 6.75273 4.46702 6.28947 4.46702Z" fill="white"/>
</svg>
