<svg width="10" height="10" viewBox="0 0 10 10" fill="none" xmlns="http://www.w3.org/2000/svg">
<path d="M9.03763 0.180767H1.26477C1.16458 0.176073 1.06445 0.191185 0.970108 0.225238C0.875768 0.259291 0.789071 0.311617 0.714979 0.379219C0.640887 0.446821 0.580856 0.528372 0.538322 0.619204C0.495788 0.710037 0.471586 0.808366 0.467102 0.908563V8.69889C0.472971 8.90859 0.558895 9.10809 0.707232 9.25643C0.85557 9.40476 1.05507 9.49069 1.26477 9.49656H9.03763C9.24149 9.48748 9.43368 9.39888 9.573 9.24977C9.71231 9.10066 9.78766 8.9029 9.78289 8.69889V0.908563C9.78456 0.811041 9.76629 0.714206 9.7292 0.623997C9.69211 0.533787 9.63698 0.452105 9.5672 0.383958C9.49742 0.315812 9.41445 0.262639 9.32339 0.227699C9.23232 0.192759 9.13508 0.176788 9.03763 0.180767ZM3.37829 7.94781H2.02167V3.79646H3.37829V7.94781ZM2.732 3.16764C2.63734 3.17094 2.54301 3.15463 2.45495 3.11973C2.36689 3.08483 2.287 3.0321 2.22029 2.96484C2.15358 2.89759 2.1015 2.81727 2.06733 2.72893C2.03315 2.64058 2.0176 2.54613 2.02167 2.45149C2.01749 2.35583 2.03334 2.26035 2.06822 2.17118C2.1031 2.08201 2.15624 2.00111 2.22422 1.93368C2.2922 1.86625 2.37352 1.81378 2.46297 1.77962C2.55242 1.74546 2.64803 1.73038 2.74365 1.73534C2.83831 1.73204 2.93264 1.74835 3.0207 1.78325C3.10876 1.81815 3.18865 1.87089 3.25536 1.93814C3.32207 2.00539 3.37415 2.08571 3.40833 2.17406C3.44251 2.2624 3.45805 2.35685 3.45398 2.45149C3.45816 2.54715 3.44231 2.64263 3.40743 2.7318C3.37255 2.82097 3.31941 2.90187 3.25143 2.9693C3.18345 3.03673 3.10213 3.08921 3.01268 3.12336C2.92323 3.15752 2.82763 3.1726 2.732 3.16764ZM8.23414 7.94781H6.87171V5.67708C6.87171 5.1356 6.67957 4.76297 6.19631 4.76297C6.04619 4.76428 5.90014 4.81198 5.77818 4.89953C5.65623 4.98709 5.56433 5.11022 5.5151 5.25205C5.47675 5.35825 5.46089 5.47127 5.46852 5.58392V7.94781H4.12937V3.79646H5.46852V4.3787C5.58757 4.15997 5.76478 3.97841 5.98056 3.85409C6.19633 3.72976 6.44227 3.6675 6.69121 3.67419C7.57039 3.67419 8.23414 4.25643 8.23414 5.49659V7.94781Z" fill="white"/>
</svg>
