<svg width="18" height="18" viewBox="0 0 18 18" fill="none" xmlns="http://www.w3.org/2000/svg">
<path d="M4.41667 16.1884C6.0275 16.1884 7.33333 14.8826 7.33333 13.2718C7.33333 11.6609 6.0275 10.3551 4.41667 10.3551C2.80584 10.3551 1.5 11.6609 1.5 13.2718C1.5 14.8826 2.80584 16.1884 4.41667 16.1884Z" stroke="#ED5F00" stroke-width="2"/>
<path d="M13.5833 16.1884C15.1942 16.1884 16.5 14.8826 16.5 13.2718C16.5 11.6609 15.1942 10.3551 13.5833 10.3551C11.9725 10.3551 10.6667 11.6609 10.6667 13.2718C10.6667 14.8826 11.9725 16.1884 13.5833 16.1884Z" stroke="#ED5F00" stroke-width="2"/>
<path d="M2.33333 1.18848L12.3333 10.3551M15.6667 1.18848L5.66667 10.3551" stroke="#ED5F00" stroke-width="2" stroke-linecap="round" stroke-linejoin="round"/>
</svg>
