<svg width="19" height="19" viewBox="0 0 19 19" fill="none" xmlns="http://www.w3.org/2000/svg">
<path d="M5.12518 1.85262H2.64704L5.50579 4.71983L4.74458 5.48104L1.87737 2.62229V5.10043H0.794769V0.77002H5.12518V1.85262ZM13.786 0.77002H18.1164V5.10043H17.0338V2.62229L14.1666 5.48104L13.4054 4.71983L16.2642 1.85262H13.786V0.77002ZM4.74458 13.3807L5.50579 14.1419L2.64704 17.0091H5.12518V18.0917H0.794769V13.7613H1.87737V16.2394L4.74458 13.3807ZM17.0338 16.2394V13.7613H18.1164V18.0917H13.786V17.0091H16.2642L13.4054 14.1419L14.1666 13.3807L17.0338 16.2394ZM6.20779 12.6787V6.18304H12.7034V12.6787H6.20779ZM7.29039 7.26564V11.5961H11.6208V7.26564H7.29039Z" fill="white"/>
</svg>
