<svg width="20" height="20" viewBox="0 0 20 20" fill="none" xmlns="http://www.w3.org/2000/svg">
<path d="M9.99984 11.6665L8.0415 13.6248C8.15261 13.8332 8.229 14.0554 8.27067 14.2915C8.31234 14.5276 8.33317 14.7637 8.33317 14.9998C8.33317 15.9165 8.00678 16.7012 7.354 17.354C6.70123 18.0068 5.9165 18.3332 4.99984 18.3332C4.08317 18.3332 3.29845 18.0068 2.64567 17.354C1.99289 16.7012 1.6665 15.9165 1.6665 14.9998C1.6665 14.0832 1.99289 13.2984 2.64567 12.6457C3.29845 11.9929 4.08317 11.6665 4.99984 11.6665C5.23595 11.6665 5.47206 11.6873 5.70817 11.729C5.94428 11.7707 6.1665 11.8471 6.37484 11.9582L8.33317 9.99984L6.37484 8.0415C6.1665 8.15261 5.94428 8.229 5.70817 8.27067C5.47206 8.31234 5.23595 8.33317 4.99984 8.33317C4.08317 8.33317 3.29845 8.00678 2.64567 7.354C1.99289 6.70123 1.6665 5.9165 1.6665 4.99984C1.6665 4.08317 1.99289 3.29845 2.64567 2.64567C3.29845 1.99289 4.08317 1.6665 4.99984 1.6665C5.9165 1.6665 6.70123 1.99289 7.354 2.64567C8.00678 3.29845 8.33317 4.08317 8.33317 4.99984C8.33317 5.23595 8.31234 5.47206 8.27067 5.70817C8.229 5.94428 8.15261 6.1665 8.0415 6.37484L17.1665 15.4998C17.5415 15.8748 17.6248 16.3021 17.4165 16.7815C17.2082 17.2609 16.8401 17.5004 16.3123 17.4998C16.1596 17.4998 16.0104 17.4687 15.8648 17.4065C15.7193 17.3443 15.5907 17.2573 15.479 17.1457L9.99984 11.6665ZM12.4998 9.1665L10.8332 7.49984L15.479 2.854C15.5901 2.74289 15.7187 2.65623 15.8648 2.594C16.0109 2.53178 16.1598 2.50039 16.3115 2.49984C16.8393 2.49984 17.204 2.74289 17.4057 3.229C17.6073 3.71511 17.5204 4.14567 17.1448 4.52067L12.4998 9.1665ZM4.99984 6.6665C5.45817 6.6665 5.85067 6.50345 6.17734 6.17734C6.504 5.85123 6.66706 5.45873 6.6665 4.99984C6.66595 4.54095 6.50289 4.14873 6.17734 3.82317C5.85178 3.49761 5.45928 3.33428 4.99984 3.33317C4.54039 3.33206 4.14817 3.49539 3.82317 3.82317C3.49817 4.15095 3.33484 4.54317 3.33317 4.99984C3.3315 5.4565 3.49484 5.849 3.82317 6.17734C4.1515 6.50567 4.54373 6.66873 4.99984 6.6665ZM9.99984 10.4165C10.1109 10.4165 10.2082 10.3748 10.2915 10.2915C10.3748 10.2082 10.4165 10.1109 10.4165 9.99984C10.4165 9.88872 10.3748 9.7915 10.2915 9.70817C10.2082 9.62484 10.1109 9.58317 9.99984 9.58317C9.88873 9.58317 9.7915 9.62484 9.70817 9.70817C9.62484 9.7915 9.58317 9.88872 9.58317 9.99984C9.58317 10.1109 9.62484 10.2082 9.70817 10.2915C9.7915 10.3748 9.88873 10.4165 9.99984 10.4165ZM4.99984 16.6665C5.45817 16.6665 5.85067 16.5034 6.17734 16.1773C6.504 15.8512 6.66706 15.4587 6.6665 14.9998C6.66595 14.5409 6.50289 14.1487 6.17734 13.8232C5.85178 13.4976 5.45928 13.3343 4.99984 13.3332C4.54039 13.3321 4.14817 13.4954 3.82317 13.8232C3.49817 14.1509 3.33484 14.5432 3.33317 14.9998C3.3315 15.4565 3.49484 15.849 3.82317 16.1773C4.1515 16.5057 4.54373 16.6687 4.99984 16.6665Z" fill="#ED5F00"/>
</svg>
