<svg width="20" height="21" viewBox="0 0 20 21" fill="none" xmlns="http://www.w3.org/2000/svg">
<mask id="path-1-inside-1_1_558" fill="white">
<path d="M3.33334 16.8092C2.87501 16.8092 2.48278 16.6461 2.15667 16.32C1.83056 15.9939 1.66723 15.6014 1.66667 15.1425V5.1425C1.66667 4.68416 1.83001 4.29194 2.15667 3.96583C2.48334 3.63972 2.87556 3.47639 3.33334 3.47583H16.6667C17.125 3.47583 17.5175 3.63916 17.8442 3.96583C18.1708 4.2925 18.3339 4.68472 18.3333 5.1425V15.1425C18.3333 15.6008 18.1703 15.9933 17.8442 16.32C17.5181 16.6467 17.1256 16.8097 16.6667 16.8092H3.33334ZM8.33334 15.1425H16.6667V5.1425H8.33334V15.1425ZM6.66667 15.1425V5.1425H3.33334V15.1425H6.66667Z"/>
</mask>
<path d="M3.33334 16.8092C2.87501 16.8092 2.48278 16.6461 2.15667 16.32C1.83056 15.9939 1.66723 15.6014 1.66667 15.1425V5.1425C1.66667 4.68416 1.83001 4.29194 2.15667 3.96583C2.48334 3.63972 2.87556 3.47639 3.33334 3.47583H16.6667C17.125 3.47583 17.5175 3.63916 17.8442 3.96583C18.1708 4.2925 18.3339 4.68472 18.3333 5.1425V15.1425C18.3333 15.6008 18.1703 15.9933 17.8442 16.32C17.5181 16.6467 17.1256 16.8097 16.6667 16.8092H3.33334ZM8.33334 15.1425H16.6667V5.1425H8.33334V15.1425ZM6.66667 15.1425V5.1425H3.33334V15.1425H6.66667Z" fill="white"/>
<path d="M6.66667 15.1425V17.4758H8.33334V15.1425V12.8092H6.66667V15.1425ZM6.66667 5.1425V7.47583H8.33334V5.1425V2.80916H6.66667V5.1425ZM1.66667 15.1425L-3 15.1425L-2.99999 15.1481L1.66667 15.1425ZM3.33334 3.47583V-1.19084L3.32767 -1.19083L3.33334 3.47583ZM17.8442 3.96583L21.144 0.665998L17.8442 3.96583ZM18.3333 5.1425L13.6667 5.13683V5.1425H18.3333ZM16.6667 16.8092L16.6723 12.1425H16.6667V16.8092ZM8.33334 15.1425H3.66667V19.8092H8.33334V15.1425ZM16.6667 15.1425V19.8092H21.3333V15.1425H16.6667ZM16.6667 5.1425H21.3333V0.47583H16.6667V5.1425ZM8.33334 5.1425V0.47583H3.66667V5.1425H8.33334ZM6.66667 15.1425V19.8092H11.3333V15.1425H6.66667ZM6.66667 5.1425H11.3333V0.47583H6.66667V5.1425ZM3.33334 5.1425V0.47583H-1.33333V5.1425H3.33334ZM3.33334 15.1425H-1.33333V19.8092H3.33334V15.1425ZM3.33334 16.8092V12.1425C3.66998 12.1425 4.07158 12.2051 4.48683 12.3777C4.90149 12.5501 5.22496 12.7886 5.4565 13.0202L2.15667 16.32L-1.14316 19.6198C0.0519822 20.815 1.62867 21.4758 3.33334 21.4758V16.8092ZM2.15667 16.32L5.4565 13.0202C5.68809 13.2517 5.92606 13.5747 6.09809 13.9881C6.27032 14.402 6.33293 14.802 6.33333 15.1368L1.66667 15.1425L-2.99999 15.1481C-2.99793 16.8497 -2.33813 18.4249 -1.14316 19.6198L2.15667 16.32ZM1.66667 15.1425H6.33334V5.1425H1.66667H-2.99999V15.1425H1.66667ZM1.66667 5.1425H6.33334C6.33334 5.48017 6.27042 5.88269 6.09722 6.29859C5.92431 6.71382 5.68527 7.03729 5.45369 7.26847L2.15667 3.96583L-1.14035 0.663191C-2.33691 1.85771 -2.99999 3.43526 -2.99999 5.1425H1.66667ZM2.15667 3.96583L5.45369 7.26847C5.22384 7.49794 4.90239 7.735 4.48984 7.9068C4.07653 8.07892 3.676 8.14208 3.339 8.14249L3.33334 3.47583L3.32767 -1.19083C1.62408 -1.18877 0.051707 -0.526839 -1.14035 0.663191L2.15667 3.96583ZM3.33334 3.47583V8.1425H16.6667V3.47583V-1.19084H3.33334V3.47583ZM16.6667 3.47583V8.1425C16.329 8.1425 15.927 8.07957 15.5119 7.90683C15.0975 7.73441 14.7749 7.49618 14.5443 7.26566L17.8442 3.96583L21.144 0.665998C19.95 -0.528015 18.3737 -1.19084 16.6667 -1.19084V3.47583ZM17.8442 3.96583L14.5443 7.26566C14.3139 7.03518 14.0751 6.71201 13.9023 6.2964C13.7292 5.87994 13.6663 5.47629 13.6667 5.13683L18.3333 5.1425L23 5.14816C23.0021 3.43801 22.3382 1.86018 21.144 0.665998L17.8442 3.96583ZM18.3333 5.1425H13.6667V15.1425H18.3333H23V5.1425H18.3333ZM18.3333 15.1425H13.6667C13.6667 14.8058 13.7293 14.4047 13.9015 13.9903C14.0734 13.5765 14.311 13.2539 14.5415 13.023L17.8442 16.32L21.1468 19.617C22.3394 18.4224 23 16.847 23 15.1425H18.3333ZM17.8442 16.32L14.5415 13.023C14.7737 12.7904 15.0984 12.5507 15.5149 12.3777C15.9319 12.2045 16.335 12.1421 16.6723 12.1425L16.6667 16.8092L16.661 21.4758C18.3691 21.4779 19.9497 20.8162 21.1468 19.617L17.8442 16.32ZM16.6667 16.8092V12.1425H3.33334V16.8092V21.4758H16.6667V16.8092ZM8.33334 15.1425V19.8092H16.6667V15.1425V10.4758H8.33334V15.1425ZM16.6667 15.1425H21.3333V5.1425H16.6667H12V15.1425H16.6667ZM16.6667 5.1425V0.47583H8.33334V5.1425V9.80916H16.6667V5.1425ZM8.33334 5.1425H3.66667V15.1425H8.33334H13V5.1425H8.33334ZM6.66667 15.1425H11.3333V5.1425H6.66667H2.00001V15.1425H6.66667ZM6.66667 5.1425V0.47583H3.33334V5.1425V9.80916H6.66667V5.1425ZM3.33334 5.1425H-1.33333V15.1425H3.33334H8V5.1425H3.33334ZM3.33334 15.1425V19.8092H6.66667V15.1425V10.4758H3.33334V15.1425Z" fill="#ED5F00" mask="url(#path-1-inside-1_1_558)"/>
</svg>
