<svg width="10" height="11" viewBox="0 0 10 11" fill="none" xmlns="http://www.w3.org/2000/svg">
<path d="M7.29237 1.82184C6.89446 1.36742 6.67514 0.783944 6.6752 0.179932H4.87609V7.39967C4.8625 7.79046 4.69764 8.1607 4.4163 8.43227C4.13495 8.70383 3.75912 8.8555 3.36809 8.85526C2.54132 8.85526 1.85428 8.17987 1.85428 7.34145C1.85428 6.34 2.82079 5.58891 3.81642 5.8975V4.05763C1.8077 3.7898 0.0493431 5.3502 0.0493431 7.34145C0.0493431 9.28029 1.65632 10.6602 3.36227 10.6602C5.1905 10.6602 6.6752 9.17549 6.6752 7.34145V3.67918C7.40474 4.2031 8.28064 4.4842 9.17882 4.48266V2.68355C9.17882 2.68355 8.08421 2.73595 7.29237 1.82184Z" fill="white"/>
</svg>
